<?xml version="1.0" standalone="no"?>
<!DOCTYPE svg PUBLIC "-//W3C//DTD SVG 20010904//EN"
 "http://www.w3.org/TR/2001/REC-SVG-20010904/DTD/svg10.dtd">
<svg version="1.0" xmlns="http://www.w3.org/2000/svg"
 width="700.000000pt" height="700.000000pt" viewBox="0 0 700.000000 700.000000"
 preserveAspectRatio="xMidYMid meet">
<metadata>
Created by potrace 1.11, written by Peter Selinger 2001-2013
</metadata>
<g transform="translate(0.000000,700.000000) scale(0.100000,-0.100000)"
fill="#000000" stroke="none">
<path d="M3468 6685 c-2 -2 -41 -6 -88 -10 -47 -3 -92 -8 -100 -10 -8 -2 -35
-7 -60 -10 -85 -12 -105 -15 -245 -46 -77 -17 -147 -35 -156 -40 -9 -4 -27
-10 -40 -12 -74 -14 -331 -114 -479 -187 -159 -79 -379 -212 -471 -284 -15
-12 -37 -29 -50 -38 -107 -77 -327 -279 -444 -409 -271 -300 -486 -662 -630
-1059 -15 -41 -28 -82 -31 -90 -2 -8 -17 -64 -33 -124 -33 -118 -67 -276 -76
-347 -3 -24 -7 -53 -9 -64 -21 -111 -30 -587 -13 -745 8 -78 16 -126 47 -300
31 -172 114 -437 196 -625 54 -122 143 -301 178 -355 192 -297 295 -429 481
-616 148 -148 218 -210 360 -315 268 -199 586 -364 905 -469 70 -23 306 -85
355 -93 297 -50 374 -57 620 -58 633 -2 1239 183 1765 539 70 48 107 76 215
161 235 187 468 441 634 691 35 52 72 107 82 122 11 15 19 30 19 34 0 3 8 18
19 32 18 26 121 228 154 302 82 183 154 412 201 630 25 120 43 243 54 365 14
161 5 645 -13 675 -1 3 -6 32 -10 65 -7 65 -36 211 -60 308 -136 537 -413
1031 -805 1432 -473 485 -1104 815 -1745 912 -16 2 -41 6 -55 8 -14 3 -52 7
-85 11 -33 3 -71 8 -85 11 -28 6 -497 13 -502 8z m492 -308 c14 -3 54 -8 88
-12 56 -5 270 -45 327 -61 11 -3 31 -7 45 -10 49 -9 276 -87 370 -127 833
-352 1460 -1089 1671 -1964 16 -66 31 -138 35 -160 3 -21 10 -65 15 -98 31
-195 34 -637 5 -790 -2 -11 -7 -40 -10 -65 -62 -406 -231 -831 -464 -1170
-153 -221 -348 -432 -562 -607 -205 -167 -400 -285 -685 -413 -96 -43 -338
-124 -435 -145 -107 -24 -216 -44 -261 -49 -31 -4 -67 -9 -80 -11 -39 -8 -227
-18 -334 -19 -627 -2 -1256 212 -1750 598 -137 107 -334 295 -424 406 -20 25
-44 54 -55 65 -66 72 -253 361 -324 502 -105 207 -210 508 -247 708 -27 148
-40 242 -50 355 -5 63 -6 400 -1 445 2 17 7 62 11 100 4 39 9 77 10 85 1 8 6
35 10 60 38 231 114 488 202 680 19 41 42 91 50 110 46 99 222 387 268 436 5
6 17 22 25 34 55 83 303 345 430 454 314 269 736 486 1145 589 119 30 153 37
260 51 28 4 57 9 65 11 8 2 51 7 95 11 44 3 82 8 83 9 6 5 445 -3 472 -8z"/>
<path d="M2450 5513 c0 -4 -19 -28 -43 -53 -52 -57 -93 -104 -132 -154 -16
-21 -42 -53 -58 -70 -43 -48 -160 -212 -216 -303 -118 -191 -232 -459 -267
-628 -2 -11 -6 -31 -9 -45 -29 -135 -38 -236 -38 -405 1 -266 33 -466 112
-705 135 -404 380 -787 731 -1142 193 -195 491 -439 516 -422 7 5 65 76 129
158 115 146 116 148 95 163 -32 22 -214 165 -220 172 -3 3 -32 29 -66 58 -129
110 -310 301 -410 433 -27 36 -51 67 -54 70 -10 10 -118 176 -153 235 -57 97
-133 266 -176 393 -42 126 -61 202 -87 357 -3 17 -7 104 -9 195 -2 125 2 191
15 270 48 280 161 537 348 788 60 80 51 79 122 17 62 -52 407 -338 640 -530
25 -21 65 -54 90 -75 228 -191 361 -299 373 -302 8 -2 90 54 183 123 416 309
663 493 848 630 l199 148 59 -92 c76 -119 179 -327 218 -442 134 -394 109
-811 -73 -1232 -186 -429 -573 -866 -1049 -1184 l-97 -65 114 -159 c63 -88
119 -161 125 -163 14 -5 276 182 401 285 109 90 385 363 454 448 311 383 501
766 581 1170 31 157 45 429 30 580 -39 392 -191 762 -469 1140 -133 181 -211
276 -223 271 -6 -2 -119 -84 -250 -182 -131 -98 -329 -245 -439 -326 -237
-177 -199 -148 -413 -308 -95 -72 -177 -130 -181 -130 -5 0 -66 48 -137 107
-71 59 -137 114 -148 123 -10 8 -23 20 -30 25 -6 6 -36 30 -66 55 -30 25 -64
53 -75 62 -11 9 -133 110 -271 225 -537 445 -524 435 -524 416z"/>
</g>
</svg>
