<?xml version="1.0" encoding="UTF-8"?>
<!DOCTYPE svg PUBLIC "-//W3C//DTD SVG 1.1//EN" "http://www.w3.org/Graphics/SVG/1.1/DTD/svg11.dtd">
<svg version="1.1" xmlns="http://www.w3.org/2000/svg" xmlns:xlink="http://www.w3.org/1999/xlink" x="0" y="0" width="30.012" height="30.012" viewBox="0, 0, 244, 244">
  <g id="Layer_1">
    <g>
      <path d="M173.978,53.844 L128.982,87.331 L85.8,51.533 L81.251,56.675 C64.466,75.644 57.002,94.398 58.96,116.409 C62.906,160.792 104.226,187.737 105.976,189.122 L114.776,178.005 C114.395,177.702 76.439,153.353 73.075,115.089 C71.671,99.109 76.487,85.771 87.506,71.364 L128.305,105.186 L128.52,104.928 L128.721,105.198 L171.236,73.557 C181.485,88.522 185.596,102.093 183.357,117.978 C177.995,156.014 138.816,178.342 138.419,178.624 L142.525,184.403 L146.624,190.187 C148.445,188.896 191.12,164.15 197.385,120.034 C200.493,98.156 194.02,79.038 178.251,59.216 z" fill="#262625"/>
      <path d="M196.928,193.078 C177.604,211.413 152.328,221.185 125.791,220.43 C99.242,219.734 74.522,208.713 56.188,189.389 C37.848,170.069 28.135,144.806 28.831,118.252 C29.527,91.702 40.548,66.983 59.872,48.648 C78.547,30.928 102.77,21.262 128.343,21.262 C129.23,21.262 130.117,21.271 131.009,21.296 C157.559,21.992 182.278,33.013 200.613,52.337 C218.948,71.657 228.662,96.92 227.965,123.473 C227.269,150.023 216.248,174.743 196.928,193.078 M208.173,45.162 C187.924,23.822 160.615,11.642 131.28,10.874 C101.857,10.05 74.038,20.837 52.697,41.087 C31.357,61.341 19.177,88.65 18.409,117.985 C16.826,178.627 64.873,229.26 125.52,230.852 C126.505,230.877 127.481,230.889 128.462,230.889 C156.714,230.889 183.475,220.209 204.098,200.638 C225.439,180.385 237.619,153.075 238.387,123.741 C239.155,94.411 228.424,66.503 208.173,45.162" fill="#262625"/>
    </g>
  </g>
</svg>
