<?xml version="1.0" encoding="UTF-8"?>
<!DOCTYPE svg PUBLIC "-//W3C//DTD SVG 1.1//EN" "http://www.w3.org/Graphics/SVG/1.1/DTD/svg11.dtd">
<svg version="1.1" xmlns="http://www.w3.org/2000/svg" xmlns:xlink="http://www.w3.org/1999/xlink" x="0" y="0" width="135.915" height="30.012" viewBox="0, 0, 1105, 244">
  <g id="Layer_1">
    <g>
      <path d="M173.978,53.844 L128.982,87.331 L85.8,51.533 L81.251,56.675 C64.466,75.644 57.002,94.398 58.96,116.409 C62.906,160.792 104.226,187.737 105.976,189.122 L114.776,178.005 C114.395,177.702 76.439,153.353 73.075,115.089 C71.671,99.109 76.487,85.771 87.506,71.364 L128.305,105.186 L128.52,104.928 L128.721,105.198 L171.236,73.557 C181.485,88.522 185.596,102.093 183.357,117.978 C177.995,156.014 138.816,178.342 138.419,178.624 L142.525,184.403 L146.624,190.187 C148.445,188.896 191.12,164.15 197.385,120.034 C200.493,98.156 194.02,79.038 178.251,59.216 z" fill="#262625"/>
      <path d="M196.928,193.078 C177.604,211.413 152.328,221.185 125.791,220.43 C99.242,219.734 74.522,208.713 56.188,189.389 C37.848,170.069 28.135,144.806 28.831,118.252 C29.527,91.702 40.548,66.983 59.872,48.648 C78.547,30.928 102.77,21.262 128.343,21.262 C129.23,21.262 130.117,21.271 131.009,21.296 C157.559,21.992 182.278,33.013 200.613,52.337 C218.948,71.657 228.662,96.92 227.965,123.473 C227.269,150.023 216.248,174.743 196.928,193.078 M208.173,45.162 C187.924,23.822 160.615,11.642 131.28,10.874 C101.857,10.05 74.038,20.837 52.697,41.087 C31.357,61.341 19.177,88.65 18.409,117.985 C16.826,178.627 64.873,229.26 125.52,230.852 C126.505,230.877 127.481,230.889 128.462,230.889 C156.714,230.889 183.475,220.209 204.098,200.638 C225.439,180.385 237.619,153.075 238.387,123.741 C239.155,94.411 228.424,66.503 208.173,45.162" fill="#262625"/>
    </g>
    <g>
      <path d="M351.036,161.934 L350.921,100.561 L324.986,153.37 L315.949,153.37 L290.014,100.561 L290.014,161.934 L276.986,161.934 L276.986,79.786 L293.418,79.786 L320.529,134.358 L347.517,79.786 L363.828,79.786 L363.828,161.934 z" fill="#262625"/>
      <path d="M422.929,92.227 L422.929,114.407 L463.061,114.407 L463.061,126.848 L422.929,126.848 L422.929,149.493 L469.159,149.493 L469.159,161.934 L409.076,161.934 L409.076,79.786 L467.755,79.786 L467.755,92.227 z" fill="#262625"/>
      <path d="M523.438,149.493 L543.618,149.493 C559.578,149.493 571.782,137.64 571.782,120.978 C571.782,104.194 559.227,92.227 543.031,92.227 L523.438,92.227 z M543.267,79.786 C567.912,79.786 585.75,97.042 585.75,120.863 C585.75,144.57 567.798,161.934 542.916,161.934 L509.593,161.934 L509.593,79.786 z" fill="#262625"/>
      <path d="M624.053,79.786 L637.906,79.786 L637.906,161.934 L624.053,161.934 z" fill="#262625"/>
      <path d="M732.402,149.378 L732.402,161.933 L683.004,161.933 L683.004,79.785 L696.85,79.785 L696.85,149.378 z" fill="#262625"/>
      <path d="M802.862,161.934 L789.131,161.934 L789.131,135.06 L758.502,79.786 L772.469,79.786 L795.939,119.803 L818.936,79.786 L833.025,79.786 L802.862,134.594 z" fill="#262625"/>
      <path d="M897.508,92.227 L897.508,161.934 L883.655,161.934 L883.655,92.227 L857.72,92.227 L857.72,79.786 L923.558,79.786 L923.558,92.227 z" fill="#262625"/>
      <path d="M958.923,79.786 L972.776,79.786 L972.776,161.934 L958.923,161.934 z" fill="#262625"/>
      <path d="M1085.811,161.934 L1069.264,161.934 L1047.084,130.954 L1025.019,161.934 L1008.83,161.934 L1038.749,119.803 L1010.937,79.786 L1027.018,79.786 L1047.084,108.308 L1067.264,79.786 L1083.46,79.786 L1055.884,119.215 z" fill="#262625"/>
    </g>
  </g>
</svg>
